<?xml version="1.0" encoding="utf-8"?>
<!-- Generator: Adobe Illustrator 21.1.0, SVG Export Plug-In . SVG Version: 6.00 Build 0)  -->
<svg version="1.1" id="Layer_1" xmlns="http://www.w3.org/2000/svg" xmlns:xlink="http://www.w3.org/1999/xlink" x="0px" y="0px"
	 viewBox="0 0 90 91" style="enable-background:new 0 0 90 91;" xml:space="preserve">
<style type="text/css">
	.st0{fill-opacity:0.1216;}
	.st1{fill:#70A0BD;fill-opacity:0.8;}
	.st2{fill:#FABF2E;}
</style>
<g transform="matrix( 1, 0, 0, 1, 0,0) ">
	<g>
		<g id="Layer0_0_FILL">
			<path class="st0" d="M90,40.7c0-3.9-0.3-7.2-1.1-9.8c-0.8-2.6-2.4-6.1-4.8-10.4c-0.6-1.3-2-2.9-4-5c-2.4-2.4-4.5-4.2-6.3-5.1
				c-1.2-0.6-2.5-1.5-4-2.5c-1.9-1.4-3.2-2.2-3.8-2.6c-3.3-2-7.3-3.5-12.1-4.2l-4-0.1c-2.3-0.2-3.5-0.3-3.8-0.4l-5.5-0.1
				c-4.5-0.3-9.3,0.7-14.1,3c-4.7,2.3-9.1,5.5-13.1,9.7c-4.1,4.3-7.2,9.3-9.6,14.7C1.2,33.6,0,39.5,0,45.7C0,55.4,2.3,63.8,6.9,71
				c6.9,10.7,18.3,17.5,34.4,20.1h8.4c12-2.3,20.9-6,27-11.1c2.3-1.9,4.2-4.2,5.9-6.7c0.9-1.4,2.1-3.5,3.5-6.4
				c1.3-2.6,2.2-4.9,2.8-6.6c0.8-2.4,1.1-4.5,1-6.5c-0.1-1.8,0-4.5,0.1-8C89.9,42.5,90,40.8,90,40.7 M84.8,32.3c0.7,2.4,1,5.4,1,8.9
				c0,0.1-0.1,1.7-0.1,4.7c-0.1,3.2-0.1,5.6-0.1,7.3c0.1,1.8-0.3,3.8-1,5.8c-0.5,1.6-1.3,3.5-2.5,6c-1.3,2.6-2.4,4.6-3.1,5.8
				c-1.5,2.3-3.3,4.4-5.4,6.1c-5.4,4.7-13.6,8-24.4,10h-7.7c-14.5-2.4-25-8.5-31.2-18.2c-4.2-6.5-6.3-14.2-6.3-23
				c0-5.6,1.1-11,3.3-16.3c2.1-4.9,5-9.4,8.7-13.3c3.6-3.8,7.6-6.7,11.9-8.8c4.5-2.1,8.8-3.1,12.9-2.8L46,4.6
				c0.2,0.1,1.3,0.2,3.4,0.4L53,5.1c4.3,0.8,8,2,11,3.9c0.5,0.3,1.7,1.1,3.4,2.4c1.4,1,2.6,1.7,3.6,2.2c1.7,0.8,3.6,2.4,5.7,4.7
				c1.8,1.9,3.1,3.4,3.6,4.5C82.6,26.7,84.1,29.9,84.8,32.3z"/>
			<path d="M85.8,41.2c0-3.5-0.3-6.5-1-8.9s-2.2-5.6-4.3-9.5c-0.6-1.1-1.8-2.6-3.6-4.5c-2.2-2.2-4-3.8-5.7-4.7
				c-1-0.6-2.3-1.3-3.6-2.2c-1.7-1.3-2.9-2-3.4-2.4c-3-1.9-6.7-3.1-11-3.9L49.5,5c-2.1-0.2-3.2-0.3-3.4-0.4l-5-0.1
				c-4.2-0.3-8.5,0.7-12.9,2.8c-4.3,2.1-8.3,5-11.9,8.8c-3.7,3.9-6.6,8.3-8.7,13.3c-2.2,5.3-3.3,10.7-3.3,16.3
				c0,8.8,2.1,16.5,6.3,23c6.3,9.7,16.6,15.9,31.2,18.2h7.7c10.9-2.1,19.1-5.4,24.4-10c2.1-1.7,3.8-3.8,5.4-6.1
				c0.8-1.3,1.9-3.2,3.1-5.8c1.2-2.4,2-4.4,2.5-6c0.7-2.2,1-4.1,1-5.8c-0.1-1.7,0-4.1,0.1-7.3C85.8,42.8,85.8,41.2,85.8,41.2
				 M82.1,29.1c0.1,0.4,1,3.1,2.4,8.1v7.6c-0.1,1.4-0.1,3.5,0,6.2c0,7-2.2,13.4-6.6,19.3c-6.2,8.3-15.7,13.4-28.6,15.2h-7.5
				C27.7,83.3,17.6,77.4,11.5,68c-4.1-6.3-6.1-13.8-6.1-22.4c0-3.3,0.2-5.8,0.6-7.6s1.4-4.5,3-8.4c1.5-3.6,3.9-7.3,7.2-11.1
				c3-3.1,4.5-4.7,4.5-4.7c0-0.5,0.8-1.3,2.3-2.2c1.5-1,3.3-2,5.5-3C34,6,38.1,5.2,40.8,5.9l5,0.1c1.6,0.1,2.8,0.2,3.4,0.3l3.6,0.1
				c2.4-0.3,6.3,1.2,11.5,4.4c5.4,3.2,9.7,6.6,12.9,10.2C79.4,23.4,81,26.1,82.1,29.1 M48.4,19.8h-5.1v0.1c-7,0.3-12.7,3-17,7.9
				c-4.4,5-6.6,11.4-6.6,19.1c0,2.9,0.1,4.9,0.4,6.1c0.4,2,1.5,4.2,3.1,6.5c1.9,2.6,4.1,5,6.8,7.2c4,3.3,7.9,4.8,11.7,4.7h6.5
				c4.6-0.1,9.5-2.6,14.6-7.2c2-1.8,3.7-3.7,5-5.6c1.3-1.8,1.9-3.3,1.9-4.2c0-0.2-0.1-0.4-0.3-0.5c0-0.3-0.4-0.5-1.2-0.6
				c-2.7-0.4-4.4-0.7-4.9-0.8c-0.7-0.4-1.3-0.6-1.8-0.6c-0.1,0-0.3,0.1-0.3,0.1c-0.1,0-0.1-0.1-0.1-0.1c-0.3,0-0.8,0.6-1.5,1.8
				c-0.9,1.5-1.5,2.3-1.9,2.6c-1.1,1-2.2,1.7-3.1,2.2c-1.3,0.7-3.1,1.3-5.4,1.9h-4.5c-4.6-0.5-7.9-1.5-10-2.9
				c-1.2-0.8-2.2-2.2-3.1-4c-1.2-2.3-1.9-3.7-2.2-4.3c-0.3-0.8-0.6-2-0.6-3.5c0-3.3,0.8-6.3,2.4-9c2.5-4.1,6.6-6.6,12.3-7.4h4.5
				c1.1,0.2,2,0.4,2.7,0.6c0.4,0.1,1.1,0.4,2.2,0.8c0.3,0.1,0.8,0.5,1.5,1.1c0.1,0.1,0.2,0.1,0.3,0.2c-0.8,0.4-1.7,1-2.8,1.9
				c-3.1,2.3-4.5,3.8-4.5,4.4c0,0.9,3.3,1.9,10,3.1c5.9,1,9.9,1.5,11.9,1.5c0.1,0,0.3-0.1,0.4-0.3c0.1-0.1,0.2-0.3,0.2-0.5
				c0-0.1-0.1-0.2-0.1-0.3c0.1-0.1,0.1-0.2,0.1-0.3c0-4.5,0.1-8.1,0.3-11.1c0.1-2.9,0.2-5.6,0.2-8.2c0-1.3-0.1-2-0.2-2.3
				c-0.5-0.8-1.5-0.3-3.3,1.3c-0.3,0.3-1.3,1.2-3.1,2.6c-0.6,0.5-1.1,1-1.5,1.3c-0.5-0.8-1.9-1.9-4.4-3.1
				C54.6,20.5,51.5,19.7,48.4,19.8 M43.3,21.3h5.1c1.5,0.3,3.3,0.7,5.6,1.1c1.5,0.3,2.7,0.7,3.4,1c0.3,0.2,1.7,1.1,4.1,2.9
				c0,0.1,0,0.1,0,0.3c0.1,0.2,0.2,0.3,0.6,0.3c0.3,0,1.3-0.7,3.2-2.2c1.8-1.5,3.1-2.6,3.8-3.3l0.1,0.1v2.2c0,0.5-0.2,2.9-0.5,7.1
				c-0.2,2.9-0.3,5.2-0.3,7.1c0,0,0,0.8,0,2.4c0,0.5,0.1,1,0.1,1.3c-0.8-0.2-1.8-0.3-3.2-0.6c-3.5-0.2-5.7-0.4-6.5-0.6
				c-1.2-0.2-2.6-0.6-4.4-1c-2.2-0.6-4-1-5.2-1.3c1.8-1.4,3.3-2.5,4.3-3.3c2-1.5,3-2.4,3-2.7c0-0.3-0.1-0.4-0.3-0.4
				c-0.3-0.6-1.1-1.3-2.4-1.9c-1.7-0.9-3.6-1.5-5.6-1.8h-4.7V28c-6.4,0.9-11,3.5-13.6,7.9c-1.7,2.7-2.5,6-2.5,9.8
				c0,1.8,0.1,3.1,0.5,3.9c0.3,0.6,1,2.2,2.4,4.7c1.1,2.2,2.2,3.6,3.3,4.5c2.2,1.5,5.7,2.6,10.7,3.2h5c2.9-0.2,5.8-1.5,8.6-4
				c2.2-1.9,3.3-3.5,3.6-4.7c0.2,0.1,0.5,0.3,0.8,0.4c1.5,0.6,3.4,1,5.8,1c-0.2,0.3-0.3,0.6-0.6,0.9c-0.3,0.6-0.8,1.4-1.1,2.2
				c-0.7,1-2.1,2.5-4.1,4.5c-1.9,1.8-3.8,3.3-5.4,4.3c-2.8,1.7-5.8,2.9-9.1,3.5h-6.1c-5.1-0.3-9.7-2.6-13.9-6.8
				c-4.7-4.7-7-10-7-16.2c0-6.1,1.3-11.1,3.8-15C28.4,26.6,34.5,22.9,43.3,21.3z"/>
			<path class="st1" d="M84.4,37.2c-1.4-5-2.2-7.7-2.4-8.1c-1.1-3.1-2.7-5.7-4.8-8.1c-3.2-3.6-7.5-7-12.9-10.2s-9.2-4.7-11.5-4.4
				l-3.6-0.1c-0.6-0.1-1.7-0.2-3.4-0.3l-5-0.1C38.1,5.1,33.9,6,28.5,8.5c-2.2,1-4,1.9-5.5,3c-1.5,1-2.3,1.7-2.3,2.2
				c0,0.1-1.5,1.7-4.5,4.7c-3.3,3.8-5.8,7.5-7.2,11.1c-1.6,3.9-2.6,6.7-3,8.4c-0.4,1.7-0.6,4.3-0.6,7.6c0,8.6,2,16.1,6.1,22.4
				c6.1,9.4,16.1,15.2,30.2,17.5h7.5c12.9-1.9,22.4-7,28.6-15.2c4.5-5.9,6.6-12.3,6.6-19.3c-0.1-2.7-0.1-4.8,0-6.2V37.2 M43.3,19.8
				h5.1c3-0.1,6.2,0.8,9.5,2.4c2.4,1.3,3.9,2.3,4.4,3.1c0.3-0.3,0.8-0.8,1.5-1.3c1.8-1.5,2.9-2.3,3.1-2.6c1.7-1.7,2.9-2.2,3.3-1.3
				c0.1,0.3,0.2,1,0.2,2.3c0,2.6-0.1,5.3-0.2,8.2S70,37.2,70,41.7c0,0.1,0,0.2-0.1,0.3c0.1,0.1,0.1,0.2,0.1,0.3
				c0,0.2-0.1,0.3-0.2,0.5c-0.1,0.1-0.3,0.3-0.4,0.3c-2,0-6-0.5-11.9-1.5c-6.7-1.1-10-2.2-10-3.1c0-0.6,1.5-2.1,4.5-4.4
				c1.1-0.8,2-1.5,2.8-1.9c-0.1-0.1-0.2-0.1-0.3-0.2c-0.7-0.6-1.2-1-1.5-1.1c-1-0.4-1.7-0.7-2.2-0.8c-0.7-0.2-1.6-0.4-2.7-0.6h-4.5
				c-5.7,0.8-9.8,3.3-12.3,7.4c-1.6,2.6-2.4,5.6-2.4,9c0,1.5,0.2,2.7,0.6,3.5c0.3,0.6,1,2,2.2,4.3c0.8,1.8,1.9,3.1,3.1,4
				c2.1,1.5,5.4,2.4,10,2.9h4.5c2.3-0.6,4-1.2,5.4-1.9c0.9-0.5,1.9-1.2,3.1-2.2c0.3-0.3,1-1.2,1.9-2.6c0.8-1.3,1.3-1.8,1.5-1.8
				c0.1,0,0.1,0,0.1,0.1c0.1-0.1,0.2-0.1,0.3-0.1c0.5,0,1.1,0.2,1.8,0.6c0.6,0.1,2.2,0.4,4.9,0.8c0.8,0.1,1.2,0.3,1.2,0.6
				c0.1,0.1,0.3,0.3,0.3,0.5c0,1-0.6,2.4-1.9,4.2c-1.3,1.9-3,3.8-5,5.6c-5.1,4.7-10,7.1-14.6,7.2h-6.5c-3.7,0.1-7.6-1.5-11.7-4.7
				c-2.7-2.2-4.9-4.6-6.8-7.2c-1.7-2.3-2.7-4.5-3.1-6.5c-0.3-1.2-0.4-3.3-0.4-6.1c0-7.7,2.2-14.1,6.6-19.1S36.4,20.1,43.3,19.8
				C43.3,19.8,43.3,19.8,43.3,19.8z"/>
			<path class="st2" d="M48.4,21.3h-5.1c-8.8,1.7-15,5.3-18.5,10.8c-2.5,3.8-3.8,8.8-3.8,15s2.3,11.5,7,16.2
				c4.2,4.2,8.9,6.5,13.9,6.8h6.1c3.3-0.6,6.3-1.7,9.1-3.5c1.6-1,3.4-2.5,5.4-4.3c2-1.9,3.4-3.4,4.1-4.5c0.4-0.8,0.8-1.6,1.1-2.2
				c0.2-0.3,0.3-0.7,0.6-0.9c-2.4-0.1-4.5-0.4-5.8-1c-0.3-0.1-0.6-0.3-0.8-0.4c-0.3,1.3-1.5,2.8-3.6,4.7c-2.8,2.5-5.6,3.8-8.6,4h-5
				c-5-0.6-8.6-1.6-10.7-3.2c-1.1-0.8-2.2-2.2-3.3-4.5c-1.3-2.4-2.2-4-2.4-4.7c-0.3-0.8-0.5-2-0.5-3.9c0-3.8,0.8-7.1,2.5-9.8
				c2.6-4.4,7.2-7,13.6-7.9v-0.1h4.7c2,0.3,3.9,0.8,5.6,1.8c1.3,0.7,2.1,1.3,2.4,1.9c0.2,0,0.3,0.1,0.3,0.4c0,0.3-1,1.2-3,2.7
				c-1,0.8-2.5,1.9-4.3,3.3c1.3,0.3,3.1,0.7,5.2,1.3c1.7,0.4,3.2,0.8,4.4,1c0.8,0.1,3,0.3,6.5,0.6c1.4,0.1,2.4,0.3,3.2,0.6
				c-0.1-0.3-0.1-0.8-0.1-1.3c0-1.5,0-2.3,0-2.4c0-1.9,0.1-4.2,0.3-7.1c0.3-4.2,0.5-6.6,0.5-7.1v-2.2l-0.1-0.1
				c-0.8,0.8-2,1.9-3.8,3.3c-1.9,1.5-2.9,2.2-3.2,2.2c-0.3,0-0.5-0.1-0.6-0.3c0-0.1,0-0.3,0-0.3c-2.4-1.7-3.8-2.6-4.1-2.9
				c-0.7-0.3-1.9-0.6-3.4-1C51.8,21.9,49.9,21.5,48.4,21.3z"/>
		</g>
	</g>
</g>
</svg>
